# xmcd
#
# Track frame offsets:
#	150
#	18841
#	33505
#	48685
#	59705
#	71670
#	107757
#	121796
#	135265
#	147596
#	179566
#	198749
#	211674
#	223237
#
# Disc length: 3124 seconds
#
# Revision: 1
# Processed by: cddbd v1.5.2PL0 Copyright (c) Steve Scherf et al.
# Submitted via: audiograbber 1.83.01
#
DISCID=de0c320e
DTITLE=Wayne Dunn - What A Savior
DYEAR=2012
DGENRE=Gospel
TTITLE0=What A Savior
TTITLE1=Because He Lives
TTITLE2=They Are Nailed To The Cross
TTITLE3=Christ The Lord Is Risen Today
TTITLE4=He Bought My Soul At Calvary
TTITLE5=Medley of Songs On The Cross
TTITLE6=Tne Thousand Angels
TTITLE7=When He Reached Down His Hand For Me
TTITLE8=Christ Arose
TTITLE9=Medley of Songs About Jesus
TTITLE10=Wonderful Name
TTITLE11=If That Isn't Love
TTITLE12=Lead Me To Calvary
TTITLE13=I Know That My Redeember Liveth
EXTD=
EXTT0=
EXTT1=
EXTT2=
EXTT3=
EXTT4=
EXTT5=
EXTT6=
EXTT7=
EXTT8=
EXTT9=
EXTT10=
EXTT11=
EXTT12=
EXTT13=
PLAYORDER=
